<svg xmlns="http://www.w3.org/2000/svg" xmlns:xlink="http://www.w3.org/1999/xlink" xmlns:fi="http://pattern.flaticon.com/" x="0" y="0" width="1920" height="1080" viewBox="0 0 1920 1080"><rect x="0px" y="0px" width="100%" height="100%" opacity="1" fill="#8460c4"/><defs><g transform="matrix(0.03906257450580597 0 0 0.03906257450580597 252.5 340)" id="L1_49"><path d="M466.45,49.374c-7.065-8.308-17.368-13.071-28.267-13.071H402.41v-11.19C402.41,11.266,391.143,0,377.297,0H134.705    c-13.848,0-25.112,11.266-25.112,25.112v11.19H73.816c-10.899,0-21.203,4.764-28.267,13.071    c-6.992,8.221-10.014,19.019-8.289,29.624c9.4,57.8,45.775,108.863,97.4,136.872c4.717,11.341,10.059,22.083,16.008,32.091    c19.002,31.975,42.625,54.073,68.627,64.76c2.635,26.644-15.094,51.885-41.794,57.9c-0.057,0.013-0.097,0.033-0.153,0.046    c-5.211,1.245-9.09,5.921-9.09,11.513v54.363h-21.986c-19.602,0-35.549,15.947-35.549,35.549v28.058    c0,6.545,5.305,11.85,11.85,11.85H390.56c6.545,0,11.85-5.305,11.85-11.85v-28.058c0-19.602-15.947-35.549-35.549-35.549h-21.988    V382.18c0-5.603-3.893-10.286-9.118-11.52c-0.049-0.012-0.096-0.028-0.145-0.04c-26.902-6.055-44.664-31.55-41.752-58.394    c25.548-10.86,48.757-32.761,67.479-64.264c5.949-10.009,11.29-20.752,16.008-32.095c51.622-28.01,87.995-79.072,97.395-136.87    C476.465,68.392,473.443,57.595,466.45,49.374z M60.652,75.192c-0.616-3.787,0.431-7.504,2.949-10.466    c2.555-3.004,6.277-4.726,10.214-4.726h35.777v21.802c0,34.186,4.363,67.3,12.632,97.583    C89.728,153.706,67.354,116.403,60.652,75.192z M366.861,460.243c6.534,0,11.85,5.316,11.85,11.85v16.208H134.422v-16.208    c0-6.534,5.316-11.85,11.85-11.85H366.861z M321.173,394.03v42.513H191.96V394.03H321.173z M223.037,370.331    c2.929-3.224,5.607-6.719,8.002-10.46c7.897-12.339,12.042-26.357,12.228-40.674c4.209,0.573,8.457,0.88,12.741,0.88    c4.661,0,9.279-0.358,13.852-1.036c0.27,19.239,7.758,37.45,20.349,51.289H223.037z M378.709,81.803    c0,58.379-13.406,113.089-37.747,154.049c-23.192,39.03-53.364,60.525-84.956,60.525c-31.597,0-61.771-21.494-84.966-60.523    c-24.342-40.961-37.748-95.671-37.748-154.049V25.112c0-0.78,0.634-1.413,1.412-1.413h242.591c0.78,0,1.414,0.634,1.414,1.413    V81.803z M451.348,75.192c-6.702,41.208-29.074,78.51-61.569,104.191c8.268-30.283,12.631-63.395,12.631-97.58V60.001h35.773    c3.938,0,7.66,1.723,10.214,4.726C450.915,67.688,451.963,71.405,451.348,75.192z"/><path d="M327.941,121.658c-1.395-4.288-5.103-7.414-9.566-8.064l-35.758-5.196l-15.991-32.402    c-1.997-4.044-6.116-6.605-10.626-6.605c-4.511,0-8.63,2.561-10.626,6.605l-15.991,32.402l-35.758,5.196    c-4.464,0.648-8.172,3.775-9.566,8.065c-1.393,4.291-0.231,8.999,2.999,12.148l25.875,25.221l-6.109,35.613    c-0.763,4.446,1.064,8.938,4.714,11.59c3.648,2.651,8.487,3,12.479,0.902L256,190.32l31.982,16.813    c1.734,0.911,3.627,1.36,5.512,1.36c2.456,0,4.902-0.763,6.966-2.263c3.65-2.652,5.477-7.144,4.714-11.59l-6.109-35.613    l25.875-25.221C328.172,130.658,329.334,125.949,327.941,121.658z M278.064,146.405c-2.793,2.722-4.068,6.644-3.408,10.489    l3.102,18.09l-16.245-8.541c-1.725-0.908-3.62-1.36-5.514-1.36c-1.894,0-3.788,0.454-5.514,1.36l-16.245,8.541l3.102-18.09    c0.66-3.844-0.615-7.766-3.408-10.489l-13.141-12.81l18.162-2.64c3.859-0.56,7.196-2.985,8.922-6.482l8.123-16.458l8.122,16.458    c1.727,3.497,5.062,5.921,8.922,6.482l18.162,2.64L278.064,146.405z"/></g><g transform="matrix(0.1697916491523753 0.04549553527192747 -0.04549553527192747 0.1697916491523753 -31.819805153394643 -55.11351921262151)" id="L1_50"><path d="M405.228,20.608c-4.824,0-9.792,0.624-14.752,1.848l3.816,15.528c30.248-7.424,56.624,15.592,56.624,44.32    c0,67.288-76.624,116.88-108.568,126.216l4.488,15.36c40.576-11.864,120.088-67.264,120.096-141.576    C466.932,48.28,439.252,20.608,405.228,20.608z"/><path d="M61.06,82.304c0-28.728,26.368-51.776,56.624-44.312l3.832-15.536c-40.032-9.84-76.448,21.008-76.448,59.848    c0,74.32,79.52,129.72,120.08,141.576l4.488-15.36C137.684,199.176,61.06,149.592,61.06,82.304z"/><path d="M283.74,297.8h-55.488c-4.416,0-8,3.576-8,8v30.36c0,2.408,1.096,4.704,2.976,6.224c1.432,1.16,3.208,1.776,5.024,1.776    c0.56,0,1.128-0.064,1.688-0.184c16.48-3.56,35.64-3.56,52.112,0c2.368,0.496,4.832-0.08,6.712-1.592    c1.88-1.52,2.976-3.8,2.976-6.224V305.8C291.74,301.376,288.164,297.8,283.74,297.8z M275.74,326.624    c-12.816-1.768-26.672-1.776-39.488,0.008V313.8v-0.008h39.488V326.624z"/><path d="M363.972,466.448H148.02c-4.416,0-8,3.576-8,8V504c0,4.424,3.584,8,8,8h215.952c4.424,0,8-3.576,8-8v-29.552    C371.972,470.024,368.396,466.448,363.972,466.448z M355.972,496H156.02v-13.552h199.952V496z"/><path d="M350.124,353.736H161.868c-4.416,0-8,3.576-8,8v112.712c0,4.424,3.584,8,8,8h188.256c4.416,0,8-3.584,8-8V361.736    C358.124,357.312,354.548,353.736,350.124,353.736z M342.124,466.448H169.868v-96.712h172.256V466.448z"/><path d="M318.132,385.728H193.868c-4.416,0-8,3.576-8,8v48.712c0,4.424,3.584,8,8,8h124.264c4.416,0,8-3.584,8-8v-48.712    C326.132,389.304,322.556,385.728,318.132,385.728z M310.132,434.44H201.868v-32.712h108.264V434.44z"/><path d="M396.988,4.024C394.428,1.432,391.02,0,387.388,0H124.612c-3.616,0-7.024,1.424-9.584,4c-2.56,2.584-3.96,6-3.944,9.632    c0.056,5.448,0.272,10.808,0.52,16.912c0.2,4.928,0.48,9.808,0.808,14.664c3.992,59.248,17.192,113.384,38.184,156.56    c3.088,6.352,6.424,12.576,9.904,18.48c16.032,27.224,34.392,46.752,54.592,58.056c2.12,1.184,4.64,1.336,6.848,0.456    c1.856,0.064,3.952,0.064,6.304,0.064h61.936c0.904,0.336,1.856,0.504,2.808,0.504c1.344,0,2.688-0.336,3.912-1.016    c20.192-11.296,38.56-30.832,54.592-58.056c3.456-5.896,6.784-12.112,9.888-18.472c21.008-43.2,34.208-97.344,38.192-156.568    c0.32-4.856,0.6-9.72,0.8-14.688c0.232-5.592,0.456-11.192,0.512-16.856C400.932,10.04,399.548,6.616,396.988,4.024z     M384.388,29.888c-0.208,4.792-0.464,9.528-0.784,14.248c-3.84,57.192-16.504,109.28-36.616,150.64    c-2.912,5.984-6.04,11.832-9.288,17.36c-13.648,23.176-29.504,40.632-46.008,50.68h-63.44c0.016,0.008-5.376,0-7.944,0    c-16.512-10.056-32.368-27.504-46.008-50.688c-3.264-5.544-6.392-11.376-9.296-17.352c-20.104-41.344-32.76-93.432-36.616-150.64    c-0.312-4.712-0.584-9.456-0.808-14.968c-0.176-4.376-0.36-8.752-0.44-13.168h257.704    C384.764,20.664,384.572,25.272,384.388,29.888z"/><path d="M352.108,34.64c-0.128,2.512-0.272,4.88-0.432,7.224c-3.336,49.568-14.616,96.288-31.768,131.552    c-2.4,4.928-5.008,9.808-7.752,14.48c-9.48,16.096-20.104,28.592-30.712,36.144l9.28,13.04    c12.432-8.848,24.6-23.048,35.224-41.064c2.96-5.048,5.776-10.296,8.352-15.6c18.024-37.08,29.864-85.904,33.344-137.496    c0.16-2.44,0.304-4.864,0.448-7.448L352.108,34.64z"/><path d="M283.74,262.824h-55.848c-13.464,0-14.8,26.104-14.8,26.368c0,0.248,1.568,24.616,15.16,24.616h55.856    c13.232,0,14.8-24.368,14.8-24.616C298.908,288.928,297.572,262.824,283.74,262.824z M280.82,297.808h-49.648    c-1.04-2.624-2.056-6.984-2.088-8.608c0.024-1.944,1.184-7.288,2.328-10.376h49.168c1.152,3.088,2.304,8.432,2.328,10.36    C282.884,290.824,281.86,295.192,280.82,297.808z"/><path d="M285.428,328.336c-18.688-4.024-40.168-4.04-58.864,0c-26.504,5.736-42.328,18.224-42.328,33.392c0,4.424,3.584,8,8,8    h127.52c4.416,0,8-3.576,8-8C327.756,346.552,311.932,334.072,285.428,328.336z M205.884,353.728    c4.944-3.72,13.056-7.368,24.056-9.752c16.488-3.56,35.648-3.56,52.104,0c11.008,2.384,19.12,6.032,24.064,9.752H205.884z"/></g><g transform="matrix(0.625 0 0 0.625 242.5 67.5)" id="L1_51"><path d="M21,20v2c0,2.414,1.721,4.434,4,4.899V32c0,1.902,0.765,3.627,2,4.889V37c0.034,0,0.066-0.009,0.099-0.01    C28.363,38.231,30.093,39,32,39c3.86,0,7-3.141,7-7v-1v-7c0-2.757-2.243-5-5-5H22C21.448,19,21,19.447,21,20z M32,37    c-0.915,0-1.762-0.265-2.5-0.696C30.987,35.437,32,33.842,32,32h-2c0,1.339-0.887,2.462-2.101,2.847    C27.336,34.038,27,33.059,27,32v-5h6c0,2.414,1.721,4.434,4,4.899V32C37,34.757,34.757,37,32,37z M23,21h11c1.654,0,3,1.346,3,3    v5.829c-1.164-0.413-2-1.525-2-2.829v-1c0-0.553-0.448-1-1-1h-8c-1.654,0-3-1.346-3-3V21z"/><path d="M61.31,55c1.62-1.076,2.69-2.914,2.69-5c0-3.309-2.691-6-6-6c-2.086,0-3.924,1.071-5,2.69C51.924,45.07,50.086,44,48,44    c-0.792,0-1.553,0.169-2.267,0.462C45.08,42.46,43.217,41,41,41H24.303l-5.527-3.685L14.618,29H16v-2h-3h-1v-8.08    c1.502-0.216,2.853-0.906,3.889-1.92H17c2.757,0,5-2.243,5-5v-2c0-0.553-0.448-1-1-1h-3V8c0-0.553-0.448-1-1-1H5    C4.448,7,4,7.447,4,8v1H1c-0.552,0-1,0.447-1,1v2c0,2.757,2.243,5,5,5h1.111c1.037,1.014,2.387,1.704,3.889,1.92V27H8H6v2h1.341    l5.74,13.394c0.071,0.166,0.185,0.31,0.331,0.415l1.732,1.26c-1.727,0.248-3.219,1.229-4.144,2.622C9.924,45.071,8.086,44,6,44    c-3.309,0-6,2.691-6,6c0,2.086,1.071,3.924,2.69,5C1.071,56.076,0,57.914,0,60v4h2v-4c0-2.206,1.794-4,4-4s4,1.794,4,4v4h2v-4    c0-2.206,1.794-4,4-4s4,1.794,4,4v4h2v-4c0-2.086-1.071-3.924-2.69-5c1.62-1.076,2.69-2.914,2.69-5    c0-0.346-0.036-0.683-0.092-1.013L24,50.509V63c0,0.553,0.448,1,1,1h20c0.552,0,1-0.447,1-1v-6.453C46.606,56.194,47.286,56,48,56    c2.206,0,4,1.794,4,4v4h2v-4c0-2.206,1.794-4,4-4s4,1.794,4,4v4h2v-4C64,57.914,62.929,56.076,61.31,55z M20,11v1    c0,1.541-1.172,2.799-2.669,2.967C17.756,14.064,18,13.061,18,12v-1H20z M2,12v-1h2v1c0,1.061,0.244,2.064,0.669,2.967    C3.172,14.799,2,13.541,2,12z M6,12V9h10v3c0,2.757-2.243,5-5,5S6,14.757,6,12z M2,50c0-2.206,1.794-4,4-4s4,1.794,4,4    s-1.794,4-4,4S2,52.206,2,50z M11,56.69c-0.445-0.67-1.02-1.245-1.69-1.69c0.67-0.445,1.245-1.02,1.69-1.69    c0.445,0.67,1.02,1.245,1.69,1.69C12.02,55.445,11.445,56.02,11,56.69z M16,54c-2.206,0-4-1.794-4-4s1.794-4,4-4s4,1.794,4,4    S18.206,54,16,54z M58,46c2.206,0,4,1.794,4,4s-1.794,4-4,4s-4-1.794-4-4S55.794,46,58,46z M52,50c0,2.206-1.794,4-4,4    c-0.714,0-1.394-0.194-2-0.546v-6.908C46.606,46.194,47.286,46,48,46C50.206,46,52,47.794,52,50z M31,47.324L29.428,43H31V47.324z     M33,43h1.572L33,47.324V43z M44,62h-4V48h-2v14H26V50c0-0.32-0.153-0.62-0.412-0.809L14.81,41.353L9.517,29h2.865l4.724,9.447    c0.078,0.155,0.195,0.288,0.34,0.385l6,4C23.609,42.941,23.803,43,24,43h3.299l3.761,10.342C31.204,53.737,31.58,54,32,54    c0.42,0,0.796-0.263,0.94-0.658L36.701,43H41c1.654,0,3,1.346,3,3V62z M53,56.69c-0.445-0.67-1.02-1.245-1.69-1.69    c0.67-0.445,1.245-1.02,1.69-1.69c0.445,0.67,1.02,1.245,1.69,1.69C54.02,55.445,53.445,56.02,53,56.69z"/><path d="M27,8 29,8 29,5 32,5 32,3 29,3 29,0 27,0 27,3 24,3 24,5 27,5z"/></g><path d="M490.581,71.662c-15.832-24.81-42.612-39.171-75.887-40.872V7.63c0-4.214-3.416-7.63-7.63-7.63h-54.93    c-4.214,0-7.63,3.416-7.63,7.63c0,4.214,3.416,7.63,7.63,7.63h47.3v48.418c0,102.568-38.82,194.294-96.597,228.25    c-20.483,12.037-33.183,34.502-33.146,58.629l0.035,21.98h-27.444l0.033-21.984c0.036-24.126-12.666-46.588-33.146-58.622    c-57.78-33.954-96.6-125.681-96.6-228.252V15.259h203.962c4.214,0,7.63-3.416,7.63-7.63c0-4.214-3.416-7.63-7.63-7.63H104.939    c-4.214,0-7.63,3.416-7.63,7.63v23.161C64.037,32.493,37.26,46.854,21.43,71.663c-18.112,28.38-18.716,65.734-1.658,102.483    c12.961,27.911,38.504,51.287,75.919,69.48c27.896,13.564,52.31,19.158,55.001,19.751l6.223,1.372    c13.287,17.161,28.27,30.784,44.524,40.335c15.83,9.302,25.645,26.716,25.618,45.446l-0.033,22.007h-43.973    c-20.695,0-37.471,16.777-37.471,37.471v9.323h-20.854c-4.214,0-7.63,3.416-7.63,7.63v77.41c0,4.214,3.416,7.63,7.63,7.63h48.37    c4.214,0,7.63-3.416,7.63-7.63s-3.416-7.63-7.63-7.63h-40.741V434.59h20.854h67.004h71.584H358.8h20.854v62.151H208.702    c-4.214,0-7.63,3.416-7.63,7.63c0,4.214,3.416,7.63,7.63,7.63h178.582c4.214,0,7.63-3.416,7.63-7.63v-77.41    c0-4.214-3.416-7.63-7.63-7.63H366.43v-9.323c0-20.694-16.777-37.471-37.471-37.471h-43.974l-0.035-22.005    c-0.029-18.73,9.788-36.146,25.618-45.45c16.254-9.551,31.235-23.174,44.522-40.334l6.23-1.372    c2.697-0.595,27.148-6.21,54.994-19.75c37.417-18.194,62.959-41.57,75.914-69.482C509.284,137.4,508.684,100.049,490.581,71.662z     M97.515,76.671c1.413,46.479,10.411,90.874,26.27,129.477c-2.044-0.89-4.059-1.797-6.027-2.726    c-19.81-9.343-45.688-25.35-56.466-48.56c-10.346-22.28-10.809-43.629-1.27-58.574C67.294,84.885,80.472,78.051,97.515,76.671z     M102.363,229.902c-23.497-11.424-54.498-31.487-68.751-62.182c-14.82-31.928-14.571-63.948,0.682-87.85    c12.954-20.302,35.171-32.148,63.016-33.788v15.313C74.905,62.948,57.24,72.268,47.158,88.081    c-12.398,19.423-12.291,46.106,0.294,73.207c12.703,27.356,41.705,45.516,63.792,55.932c6.828,3.225,14.105,6.216,21.641,8.941    c3.452,6.875,7.101,13.432,10.939,19.645C134.21,243.016,118.846,237.916,102.363,229.902z M328.959,387.795    c12.248,0,22.212,9.964,22.212,22.212v9.323h-59.374h-71.583h-59.374v-9.323c0-12.248,9.964-22.212,22.212-22.212h51.591h42.725    H328.959z M414.491,76.67c17.038,1.379,30.219,8.216,37.499,19.617c9.531,14.947,9.064,36.296-1.281,58.573    c-10.783,23.22-36.657,39.224-56.466,48.561c-1.97,0.93-3.983,1.834-6.02,2.721C404.079,167.541,413.077,123.148,414.491,76.67z     M478.388,167.719c-14.249,30.695-45.249,50.758-68.747,62.183c-16.462,8.004-31.839,13.108-41.46,15.901    c3.84-6.216,7.49-12.776,10.943-19.655c7.494-2.705,14.767-5.69,21.626-8.926c22.089-10.412,51.09-28.568,63.797-55.935    c12.583-27.096,12.695-53.778,0.305-73.207c-10.095-15.813-27.761-25.134-50.159-26.685V46.083    c27.847,1.637,50.067,13.484,63.021,33.785C492.962,103.774,493.207,135.794,478.388,167.719z" transform="matrix(0.07812485098838806 0 0 0.07812485098838806 155 330)" id="L1_52"/><g transform="matrix(0.3125 0 0 0.3125 67.5 67.5)" id="L1_53"><path d="m65.667 75.75-24.519 45.75-4.606-11.805-12.35 2.84 24.519-45.75z" fill="#e4e4e4"/><path d="m62.333 75.75 24.519 45.75 4.606-11.805 12.35 2.84-24.519-45.75z" fill="#e4e4e4"/><path d="m102.123 49.833c0-3.71 6.03-8.162 5.116-11.584-.947-3.541-8.422-4.378-10.216-7.478-1.823-3.144 1.177-10.032-1.378-12.584s-9.439.442-12.583-1.378c-3.1-1.793-3.938-9.268-7.478-10.215-3.422-.914-7.874 5.116-11.584 5.116s-8.163-6.03-11.584-5.116c-3.541.947-4.378 8.422-7.478 10.216-3.145 1.819-10.032-1.174-12.584 1.378s.441 9.439-1.378 12.584c-1.793 3.1-9.269 3.937-10.215 7.477-.914 3.422 5.116 7.874 5.116 11.584s-6.03 8.167-5.116 11.585c.947 3.54 8.422 4.378 10.216 7.478 1.823 3.144-1.177 10.031 1.378 12.583s9.439-.441 12.583 1.378c3.1 1.794 3.938 9.269 7.478 10.215 3.422.915 7.874-5.115 11.584-5.115s8.163 6.03 11.584 5.115c3.541-.946 4.378-8.422 7.478-10.215 3.145-1.82 10.032 1.173 12.584-1.379s-.441-9.439 1.378-12.583c1.793-3.1 9.269-3.937 10.215-7.477.914-3.418-5.116-7.875-5.116-11.585z" fill="#ffd169"/><path d="m102.123 49.833c0-3.71 6.03-8.162 5.116-11.584-.947-3.541-8.422-4.378-10.216-7.478-1.823-3.144 1.177-10.032-1.378-12.584s-9.439.442-12.583-1.378c-3.1-1.793-3.938-9.268-7.478-10.215-3.422-.914-7.874 5.116-11.584 5.116s-8.163-6.03-11.584-5.116c-3.541.947-4.378 8.422-7.478 10.216-3.145 1.819-10.032-1.174-12.584 1.378s.441 9.439-1.378 12.584c-1.793 3.1-9.269 3.937-10.215 7.477-.914 3.422 5.116 7.874 5.116 11.584s-6.03 8.167-5.116 11.585c.947 3.54 8.422 4.378 10.216 7.478 1.823 3.144-1.177 10.031 1.378 12.583s9.439-.441 12.583 1.378c3.1 1.794 3.938 9.269 7.478 10.215 3.422.915 7.874-5.115 11.584-5.115s8.163 6.03 11.584 5.115c3.541-.946 4.378-8.422 7.478-10.215 3.145-1.82 10.032 1.173 12.584-1.379s-.441-9.439 1.378-12.583c1.793-3.1 9.269-3.937 10.215-7.477.914-3.418-5.116-7.875-5.116-11.585z" fill="#ffd169"/><circle cx="64" cy="49" r="27" fill="#e4e4e4"/><g fill="#ffd169"><path d="m44.1 82.51a11.119 11.119 0 0 1 -3.81-.22 11.119 11.119 0 0 1 3.81.22z"/><path d="m44.1 17.16a11.119 11.119 0 0 1 -3.81.22 11.119 11.119 0 0 1 3.81-.22z"/><path d="m44.1 82.51a11.119 11.119 0 0 1 -3.81-.22 11.119 11.119 0 0 1 3.81.22z"/><path d="m44.1 17.16a11.119 11.119 0 0 1 -3.81.22 11.119 11.119 0 0 1 3.81-.22z"/></g><path d="m102.123 49.833c0-3.71 6.03-8.162 5.116-11.584-.947-3.541-8.422-4.378-10.216-7.478-1.823-3.144 1.177-10.032-1.378-12.584s-9.439.442-12.583-1.378c-3.1-1.793-3.938-9.268-7.478-10.215-3.422-.914-7.874 5.116-11.584 5.116s-8.163-6.03-11.584-5.116c-3.541.947-4.378 8.422-7.478 10.216-3.145 1.819-10.032-1.174-12.584 1.378s.441 9.439-1.378 12.584c-1.793 3.1-9.269 3.937-10.215 7.477-.914 3.422 5.116 7.874 5.116 11.584s-6.03 8.167-5.116 11.585c.947 3.54 8.422 4.378 10.216 7.478 1.823 3.144-1.177 10.031 1.378 12.583s9.439-.441 12.583 1.378c3.1 1.794 3.938 9.269 7.478 10.215 3.422.915 7.874-5.115 11.584-5.115s8.163 6.03 11.584 5.115c3.541-.946 4.378-8.422 7.478-10.215 3.145-1.82 10.032 1.173 12.584-1.379s-.441-9.439 1.378-12.583c1.793-3.1 9.269-3.937 10.215-7.477.914-3.418-5.116-7.875-5.116-11.585z" fill="none"/><path d="m103.874 49.833c0-1.192 1.238-2.967 2.331-4.533 1.681-2.41 3.42-4.9 2.724-7.5-.721-2.7-3.537-4.011-6.262-5.282-1.677-.782-3.578-1.669-4.129-2.62-.57-.985-.389-3.1-.229-4.974.253-2.964.515-6.029-1.427-7.971s-5.006-1.68-7.971-1.426c-1.87.16-3.989.341-4.973-.229-.952-.551-1.838-2.452-2.62-4.129-1.271-2.727-2.584-5.544-5.282-6.269-2.6-.7-5.093 1.043-7.5 2.725-1.569 1.097-3.344 2.335-4.536 2.335s-2.967-1.238-4.533-2.331c-2.41-1.681-4.9-3.419-7.5-2.725-2.7.721-4.012 3.538-5.282 6.262-.783 1.678-1.669 3.579-2.621 4.129-.984.57-3.1.39-4.972.229-2.965-.253-6.031-.515-7.972 1.427s-1.68 5.007-1.427 7.971c.16 1.87.341 3.989-.229 4.974-.55.951-2.451 1.837-4.128 2.62-2.725 1.27-5.541 2.583-6.262 5.281-.7 2.6 1.043 5.093 2.724 7.5 1.093 1.566 2.331 3.341 2.331 4.533s-1.241 2.97-2.329 4.537c-1.681 2.41-3.42 4.9-2.725 7.5.722 2.7 3.539 4.012 6.263 5.283 1.677.782 3.578 1.668 4.129 2.62.57.985.389 3.1.229 4.973-.253 2.964-.515 6.03 1.427 7.972 1.563 1.563 3.857 1.693 6.239 1.554l-14.71 27.442a1.75 1.75 0 0 0 1.936 2.532l10.877-2.51 4.06 10.4a1.749 1.749 0 0 0 1.525 1.111q.052 0 .1 0a1.751 1.751 0 0 0 1.542-.923l15.922-29.7q.428-.294.853-.59c1.566-1.093 3.341-2.331 4.533-2.331s2.967 1.238 4.533 2.331c.284.2.568.4.854.591l15.921 29.7a1.751 1.751 0 0 0 1.542.923q.053 0 .105 0a1.749 1.749 0 0 0 1.525-1.111l4.06-10.4 10.877 2.51a1.75 1.75 0 0 0 1.936-2.532l-11.953-22.298a1.75 1.75 0 0 0 -3.085 1.653l10.132 18.9-8.592-1.983a1.75 1.75 0 0 0 -2.024 1.069l-3.23 8.275-12.018-22.414a4.694 4.694 0 0 0 1.453-.151c2.7-.721 4.012-3.538 5.282-6.262.783-1.678 1.669-3.579 2.621-4.129.984-.57 3.1-.389 4.973-.229 2.964.252 6.03.514 7.971-1.427s1.68-5.007 1.427-7.972c-.16-1.869-.341-3.988.229-4.973.55-.951 2.451-1.837 4.128-2.62 2.724-1.27 5.541-2.584 6.262-5.282.7-2.6-1.043-5.093-2.725-7.5-1.092-1.569-2.33-3.344-2.33-4.536zm-62.474 67.496-3.23-8.275a1.75 1.75 0 0 0 -2.024-1.069l-8.592 1.983 13.924-25.977a5.413 5.413 0 0 1 2.584.381c.952.55 1.838 2.451 2.62 4.128 1.271 2.725 2.584 5.542 5.282 6.263a4.628 4.628 0 0 0 1.2.157c.086 0 .172-.016.258-.021zm64.148-56.363c-.3 1.12-2.457 2.126-4.36 3.013-2.25 1.05-4.577 2.135-5.679 4.04-1.121 1.938-.9 4.523-.687 7.023.177 2.066.377 4.409-.413 5.2s-3.132.591-5.2.414c-2.5-.215-5.085-.435-7.023.687-1.905 1.1-2.99 3.429-4.04 5.679-.887 1.9-1.894 4.061-3.013 4.361-1.03.276-2.925-1.048-4.6-2.215-2.086-1.456-4.244-2.96-6.536-2.96s-4.45 1.505-6.536 2.96c-1.672 1.167-3.568 2.491-4.6 2.215-1.12-.3-2.126-2.457-3.014-4.361-1.049-2.25-2.134-4.576-4.039-5.678a9.721 9.721 0 0 0 -5.488-.805c-.045 0-.091 0-.136.009q-.7.048-1.4.109c-2.067.177-4.409.375-5.2-.414s-.591-3.133-.415-5.2c.214-2.5.435-5.085-.687-7.023-1.1-1.905-3.428-2.99-5.678-4.039-1.9-.888-4.062-1.894-4.361-3.015-.275-1.028 1.048-2.923 2.214-4.6 1.456-2.086 2.96-4.243 2.96-6.536s-1.5-4.449-2.96-6.536c-1.167-1.672-2.489-3.567-2.214-4.6.3-1.12 2.456-2.126 4.36-3.013 2.25-1.049 4.577-2.134 5.679-4.04 1.121-1.938.9-4.523.687-7.023-.177-2.067-.377-4.409.414-5.2s3.131-.591 5.2-.414c2.5.213 5.085.434 7.023-.687 1.905-1.1 2.99-3.429 4.04-5.679.887-1.9 1.894-4.061 3.014-4.361 1.025-.278 2.924 1.047 4.6 2.215 2.087 1.455 4.244 2.96 6.536 2.96s4.45-1.505 6.536-2.961c1.672-1.167 3.568-2.485 4.6-2.214 1.12.3 2.126 2.457 3.014 4.361 1.049 2.25 2.134 4.576 4.039 5.678 1.938 1.121 4.523.9 7.024.687 2.067-.177 4.408-.376 5.2.414s.59 3.133.414 5.2c-.214 2.5-.435 5.085.687 7.023 1.1 1.906 3.429 2.991 5.679 4.04 1.9.888 4.061 1.894 4.36 3.014.275 1.029-1.047 2.924-2.214 4.6-1.456 2.087-2.96 4.244-2.96 6.536s1.5 4.45 2.96 6.536c1.165 1.675 2.488 3.571 2.213 4.6z" fill="#215063"/><path d="m40 37.328a1.749 1.749 0 0 0 2.405-.587 25.374 25.374 0 0 1 3.578-4.6 1.75 1.75 0 0 0 -2.5-2.453 28.872 28.872 0 0 0 -4.072 5.234 1.75 1.75 0 0 0 .589 2.406z" fill="#215063"/><path d="m64 21.083a28.741 28.741 0 0 0 -14.406 3.865 1.75 1.75 0 1 0 1.756 3.027 25.207 25.207 0 1 1 -12.087 16.768 1.75 1.75 0 0 0 -3.429-.7 28.753 28.753 0 1 0 28.166-22.96z" fill="#215063"/><path d="m81.084 43.414a1.75 1.75 0 0 0 3.275-1.236 21.722 21.722 0 0 0 -13.342-12.933 1.75 1.75 0 0 0 -1.132 3.312 18.232 18.232 0 0 1 11.199 10.857z" fill="#215063"/></g><g transform="matrix(0.13671875 0 0 0.13671875 315 140)" id="L1_56"><path d="M256,85c-63.411,0-115,51.589-115,115s51.589,115,115,115s115-51.589,115-115S319.411,85,256,85z M242.566,247.188    l-43.273-42.835l21.105-21.321l22.002,21.78l49.118-49.389l21.271,21.155L242.566,247.188z"/><path d="M437.005,160.787c-5.235-4.142-7.106-11.125-4.644-17.33c5.442-13.713,4.794-29.687-3.156-43.457    s-21.46-22.319-36.057-24.462c-6.605-0.97-11.717-6.082-12.687-12.687C378.318,48.255,369.77,34.745,356,26.795    c-13.77-7.95-29.744-8.598-43.457-3.156c-6.205,2.463-13.188,0.592-17.33-4.644C286.058,7.426,271.9,0,256,0    c-15.9,0-30.058,7.426-39.213,18.995c-4.142,5.235-11.125,7.106-17.33,4.644c-13.713-5.442-29.687-4.794-43.457,3.156    s-22.318,21.46-24.462,36.057c-0.97,6.605-6.082,11.717-12.687,12.687C104.255,77.681,90.745,86.23,82.795,100    s-8.598,29.744-3.156,43.457c2.463,6.205,0.592,13.188-4.644,17.33C63.426,169.942,56,184.1,56,200    c0,15.9,7.426,30.058,18.995,39.213c5.235,4.142,7.106,11.125,4.644,17.33c-5.442,13.713-4.794,29.687,3.156,43.457    c7.95,13.77,21.46,22.318,36.057,24.462c6.605,0.97,11.717,6.081,12.687,12.687c2.143,14.597,10.692,28.107,24.462,36.057    c13.77,7.95,29.744,8.598,43.457,3.156c6.205-2.463,13.188-0.592,17.33,4.644C225.942,392.574,240.1,400,256,400    c15.9,0,30.058-7.426,39.213-18.995c4.142-5.235,11.125-7.106,17.33-4.644c13.713,5.442,29.687,4.794,43.457-3.156    c13.77-7.95,22.319-21.46,24.462-36.057c0.97-6.605,6.082-11.717,12.687-12.687c14.597-2.143,28.107-10.692,36.057-24.462    s8.598-29.744,3.156-43.457c-2.463-6.205-0.592-13.188,4.644-17.33C448.574,230.058,456,215.9,456,200    C456,184.1,448.574,169.942,437.005,160.787z M256,345c-79.953,0-145-65.047-145-145S176.047,55,256,55s145,65.047,145,145    S335.953,345,256,345z"/><path d="M311.604,407.518C296.77,421.914,277.015,430,256,430s-40.77-8.085-55.604-22.482    c-13.039,3.286-26.539,3.196-39.396-0.144V512h27.598L256,487.928L323.402,512H351V407.373    C338.143,410.713,324.641,410.802,311.604,407.518z"/></g><g transform="matrix(0.78125 0 0 0.78125 62.5 237.5)" id="L1_58"><rect x="28px" y="38px" width="2px" height="2px"/><rect x="34px" y="38px" width="2px" height="2px"/><path d="M40.847,50.506,36,48.351V46.908a7.974,7.974,0,0,0,3.75-4.942c.084.007.165.034.25.034a2.992,2.992,0,0,0,.376-5.962l1.331-1.331A1,1,0,0,0,42,34V31a5.006,5.006,0,0,0-5-5H21a1,1,0,0,0-.895,1.447L21.882,31l-.777,1.553a1,1,0,0,0,.188,1.154l2.331,2.331A2.992,2.992,0,0,0,24,42c.085,0,.167-.027.252-.035a7.994,7.994,0,0,0,2.091,3.692A7.765,7.765,0,0,0,28,46.893v1.458l-4.846,2.155A7,7,0,0,0,19,56.9V61a1,1,0,0,0,1,1H44a1,1,0,0,0,1-1V56.9A7,7,0,0,0,40.847,50.506Zm-4.321.268-.234.936-1.582-.527-.368-.736.683-.341ZM32,48a7.921,7.921,0,0,0,2-.262v.644L32.764,49H31.236L30,48.382v-.644A7.927,7.927,0,0,0,32,48Zm-.783,3.8.4-.8h.764l.4.8L32,52.586Zm.19,2.98a.917.917,0,0,0,1.185,0L33.753,60H30.247ZM41,39a1,1,0,0,1-1,1V38A1,1,0,0,1,41,39ZM23.9,30.553,22.618,28H37a3,3,0,0,1,3,3v2.586L38.586,35h-.145a1,1,0,0,1-.948-.684l-.544-1.632a1,1,0,0,0-.651-.638A.985.985,0,0,0,36,32a1,1,0,0,0-.6.2l-1.865,1.4a7.051,7.051,0,0,1-4.2,1.4H25.414l-2.2-2.2.678-1.356A1,1,0,0,0,23.9,30.553ZM23,39a1,1,0,0,1,1-1v2A1,1,0,0,1,23,39Zm3.031,1.579A4.588,4.588,0,0,1,26,40V37h3.333a9.06,9.06,0,0,0,5.4-1.8l.756-.567.106.316A2.994,2.994,0,0,0,38,36.965V40a4.762,4.762,0,0,1-.035.614,6,6,0,0,1-8.543,4.8,5.865,5.865,0,0,1-1.665-1.171A5.992,5.992,0,0,1,26.031,40.579Zm2.944,9.527.683.341-.368.736-1.582.527-.234-.936ZM21,56.9a5,5,0,0,1,2.966-4.566l1.653-.735.411,1.643A1,1,0,0,0,27,54a.983.983,0,0,0,.316-.052l2.407-.8L28.2,60H21ZM43,60H35.8l-1.525-6.854,2.407.8A.983.983,0,0,0,37,54a1,1,0,0,0,.97-.758l.411-1.643,1.653.735A5,5,0,0,1,43,56.9Z"/><path d="M27.3,14.527l-1.955,6.019a1,1,0,0,0,1.539,1.117L32,17.944l5.118,3.719a1,1,0,0,0,1.539-1.117L36.7,14.527l5.119-3.717A1,1,0,0,0,41.233,9H34.906L32.951,2.983a1,1,0,0,0-1.9,0L29.094,9H22.767a1,1,0,0,0-.588,1.809ZM29.82,11a1,1,0,0,0,.951-.691L32,6.528l1.229,3.781A1,1,0,0,0,34.18,11h3.975l-3.217,2.337a1,1,0,0,0-.363,1.117L35.8,18.236,32.588,15.9a1,1,0,0,0-1.176,0L28.2,18.236l1.229-3.782a1,1,0,0,0-.363-1.117L25.845,11Z"/><path d="M59.106,18.691A1,1,0,0,0,58.155,18H54.18l-1.229-3.78a1,1,0,0,0-1.9,0L49.82,18H45.845a1,1,0,0,0-.588,1.809l3.216,2.337-1.229,3.782a1,1,0,0,0,1.539,1.117L52,24.708l3.217,2.337a1,1,0,0,0,1.539-1.117l-1.229-3.782,3.216-2.337A1,1,0,0,0,59.106,18.691ZM53.4,22.072l.5,1.546-1.314-.955a1,1,0,0,0-1.176,0l-1.314.955.5-1.546a1,1,0,0,0-.364-1.117L48.922,20h1.625a1,1,0,0,0,.951-.691l.5-1.545.5,1.545a1,1,0,0,0,.951.691h1.625l-1.314.955A1,1,0,0,0,53.4,22.072Z"/><path d="M19.106,18.691A1,1,0,0,0,18.155,18H14.18l-1.229-3.78a1,1,0,0,0-1.9,0L9.82,18H5.845a1,1,0,0,0-.588,1.809l3.216,2.337L7.245,25.928a1,1,0,0,0,1.539,1.117L12,24.708l3.216,2.337a1,1,0,0,0,1.539-1.117l-1.228-3.782,3.216-2.337A1,1,0,0,0,19.106,18.691ZM13.4,22.072l.5,1.546-1.314-.955a1,1,0,0,0-1.176,0l-1.314.955.5-1.546a1,1,0,0,0-.363-1.117L8.923,20h1.624a1,1,0,0,0,.951-.691l.5-1.545.5,1.545a1,1,0,0,0,.951.691h1.624l-1.314.955A1,1,0,0,0,13.4,22.072Z"/></g><g transform="matrix(0.09412877427858136 0.027327710122212263 -0.027327710122212263 0.09412877427858136 205.89894158169494 221.90712664978838)" id="L1_62"><path d="M461.913,4.279c-1.273-2.616-3.928-4.275-6.836-4.275h-48.331h-52.863h-48.341c-2.337,0-4.544,1.075-5.986,2.914    l-43.555,55.591L212.443,2.917c-1.442-1.839-3.649-2.914-5.986-2.914h-48.282c-0.017,0-0.034-0.003-0.052-0.003h-52.867    c-0.014,0-0.027,0.003-0.042,0.003H56.923c-2.909,0-5.563,1.66-6.836,4.275c-1.273,2.616-0.943,5.728,0.852,8.019l101.294,129.275    c-2.517,3.422-3.949,7.603-3.949,12.011v74.413c-33.565,29.787-54.758,73.224-54.758,121.523    C93.526,439.112,166.413,512,256.005,512s162.479-72.888,162.479-162.48c0-48.304-21.196-91.744-54.767-121.532v-74.405    c0-4.489-1.484-8.629-3.964-11.993L461.062,12.296C462.856,10.007,463.187,6.894,461.913,4.279z M357.585,15.21h33.544v0.001    l-84.525,107.878l-16.775-21.41L357.585,15.21z M309.245,15.211h29.02l-58.096,74.14l-14.506-18.514L309.245,15.211z     M202.756,15.211l112.393,143.441h-20.221h-8.789L173.744,15.211H202.756z M323.163,173.86v27.721    c-20.48-9.334-43.222-14.541-67.158-14.541c-23.94,0-46.685,5.208-67.168,14.545V173.86H323.163z M72.542,15.211h29.016    l39.915,50.94c2.59,3.305,7.369,3.885,10.675,1.296l0.001-0.001c3.305-2.59,3.885-7.369,1.296-10.675l-32.565-41.56h33.546    l112.393,143.441h-33.546l-57.129-72.911c-2.59-3.305-7.369-3.885-10.675-1.296l-0.001,0.001    c-3.305,2.59-3.885,7.369-1.296,10.675l49.78,63.531h-29.016L72.542,15.211z M173.629,168.882v40.643    c-3.464,2.046-6.846,4.217-10.139,6.506v-60.089L173.629,168.882z M403.277,349.52c0,81.206-66.066,147.273-147.271,147.273    c-81.206,0-147.271-66.066-147.271-147.273S174.8,202.248,256.005,202.248S403.277,268.314,403.277,349.52z M338.329,165.459    c-0.001-0.011-0.004-0.021-0.005-0.032c-0.033-0.311-0.091-0.613-0.161-0.911c-0.016-0.07-0.036-0.14-0.054-0.21    c-0.072-0.274-0.158-0.54-0.26-0.801c-0.015-0.04-0.027-0.079-0.043-0.118c-0.123-0.301-0.265-0.591-0.424-0.871    c-0.029-0.053-0.063-0.102-0.093-0.154c-0.143-0.239-0.298-0.468-0.466-0.69c-0.026-0.034-0.045-0.072-0.072-0.105l-10.227-13.052    h16.915c2.795,0,5.069,2.274,5.069,5.069v62.441c-3.292-2.288-6.673-4.459-10.138-6.505v-43.263    C338.371,165.986,338.356,165.721,338.329,165.459z M346.699,133.592c-1.064-0.172-2.147-0.287-3.259-0.287H317.92l92.529-118.095    h29.01L346.699,133.592z"/><path d="M367.355,295.946c-1.919-3.99-6.781-5.561-10.632-3.378l-0.007,0.004c-3.486,1.976-4.827,6.311-3.088,9.921    c7.027,14.584,10.714,30.703,10.714,47.027c0,61.159-50.939,110.644-112.62,108.255c-56.227-2.178-101.795-47.746-103.973-103.973    c-2.389-61.679,47.096-112.62,108.255-112.62c29.881,0,58.127,12.209,78.556,33.729c2.767,2.915,7.307,3.208,10.396,0.637    c3.367-2.803,3.69-7.883,0.676-11.062c-23.299-24.57-55.529-38.51-89.627-38.51c-69.745,0-126.176,58.092-123.451,128.43    c2.484,64.12,54.449,116.084,118.569,118.567c70.338,2.723,128.427-53.708,128.427-123.451    C379.551,330.932,375.354,312.572,367.355,295.946z"/><path d="M261.94,266.868c-2.678,0-4.463,0.893-6.025,2.455l-23.208,22.316c-2.902,2.008-4.687,5.802-4.687,9.149    c0,4.687,3.347,9.596,8.034,9.596c1.338,0,3.347-0.669,4.909-2.232l7.811-9.819h0v124.076c0,5.132,5.802,7.811,11.828,7.811    c5.802,0,11.828-2.678,11.828-7.811V274.678C272.429,269.768,266.849,266.868,261.94,266.868z"/></g><g transform="matrix(0.12096773833036423 0 0 0.12096773833036423 132 137)" id="L1_63"><rect x="480px" y="480px" width="16px" height="16px"/><path d="M424,408H312v-40h-24V218.896l74.416-89.296c3.6-4.32,5.584-9.808,5.584-15.44v-2.048C368,98.824,357.176,88,343.88,88     c-7.496,0-14.432,3.392-19.032,9.304l-38.528,49.544c0.984-3.472,1.68-7.064,1.68-10.848c0-22.056-17.944-40-40-40     c-22.056,0-40,17.944-40,40c0,3.784,0.696,7.376,1.68,10.848l-38.528-49.544C166.544,91.392,159.608,88,152.12,88     C138.824,88,128,98.824,128,112.12v2.048c0,5.632,1.984,11.12,5.592,15.448L208,218.896V368h-24v40H72v72H0v16h464v-16h-40V408z      M184,480H88v-56h96V480z M248,112c13.232,0,24,10.768,24,24s-10.768,24-24,24s-24-10.768-24-24S234.768,112,248,112z      M257.872,176L248,192.456L238.128,176H257.872z M145.88,119.368c-1.216-1.464-1.88-3.304-1.88-5.2v-2.048     c0-4.48,3.64-8.12,8.12-8.12c2.488,0,4.88,1.168,6.408,3.136L212.088,176h7.384L248,223.544L276.528,176h7.384l53.56-68.864     C339,105.168,341.4,104,343.88,104c4.48,0,8.12,3.64,8.12,8.12v2.048c0,1.896-0.664,3.744-1.88,5.192L272,213.104V256h-48     v-42.896L145.88,119.368z M256,336v-48h-16v48h-16v-64h48v64H256z M272,352v16h-16v-16H272z M240,352v16h-16v-16H240z M296,480     h-96v-96h8h80h8V480z M408,480h-96v-56h96V480z"/><rect x="368px" y="0px" width="16px" height="16px"/><rect x="368px" y="32px" width="16px" height="16px"/><rect x="352px" y="16px" width="16px" height="16px"/><rect x="384px" y="16px" width="16px" height="16px"/><rect x="48px" y="88px" width="16px" height="16px"/><rect x="48px" y="120px" width="16px" height="16px"/><rect x="32px" y="104px" width="16px" height="16px"/><rect x="64px" y="104px" width="16px" height="16px"/><rect x="368px" y="160px" width="16px" height="16px"/><rect x="368px" y="192px" width="16px" height="16px"/><rect x="352px" y="176px" width="16px" height="16px"/><rect x="384px" y="176px" width="16px" height="16px"/><rect x="208px" y="32px" width="16px" height="16px"/><rect x="208px" y="64px" width="16px" height="16px"/><rect x="192px" y="48px" width="16px" height="16px"/><rect x="224px" y="48px" width="16px" height="16px"/><rect x="464px" y="80px" width="16px" height="16px"/><rect x="464px" y="112px" width="16px" height="16px"/><rect x="448px" y="96px" width="16px" height="16px"/><rect x="480px" y="96px" width="16px" height="16px"/><rect x="128px" y="240px" width="16px" height="16px"/><rect x="128px" y="272px" width="16px" height="16px"/><rect x="112px" y="256px" width="16px" height="16px"/><rect x="144px" y="256px" width="16px" height="16px"/><rect x="112px" y="0px" width="16px" height="16px"/><rect x="112px" y="32px" width="16px" height="16px"/><rect x="96px" y="16px" width="16px" height="16px"/><rect x="128px" y="16px" width="16px" height="16px"/><path d="M256,400 224,400 224,416 240,416 240,448 216,448 216,464 280,464 280,448 256,448z"/></g><g transform="matrix(0.052555836737155914 0 0 0.052555836737155914 334.54564666748047 243.54568021497403)" id="L1_64"><path d="M368.446,7.63H134.275h-24.988c0,0,0.001,243.86,101.449,300.302  c11.958,6.652,19.221,19.415,19.221,33.099h17.819h34.273c0-13.684,7.263-26.446,19.221-33.099  c10.993-6.116,20.793-14.435,29.532-24.404c51.397-58.624,66.062-174.372,70.246-235.651c1.67-24.462,1.672-40.249,1.672-40.249  h-34.274L368.446,7.63L368.446,7.63z" fill="#fece00"/><path d="M7.622,97.789c1.091-92.984,103.33-49.912,103.33-49.912c0.641,9.377,1.528,20.031,2.753,31.558  C86.806,69.75,29.351,55.489,37.418,114.21c8.186,59.593,34.177,100.792,68.779,123.01c19.266,12.371,40.557,14.121,52.855,13.874  c6.498,11.987,13.84,22.96,22.146,32.434v0.001c0,0-43.479,8.102-86.795-17.964C54.067,241.291,6.549,189.176,7.622,97.789z" fill="#eebf00"/><rect x="229px" y="375px" width="52px" height="46px" fill="#fece00"/><rect x="229px" y="375px" width="52px" height="18px" fill="#ddb201"/><rect x="148px" y="455px" width="215px" height="48px" fill="#3e3d43"/><rect x="148px" y="485px" width="215px" height="18px" fill="#444444"/><rect x="188px" y="422px" width="134px" height="33px" fill="#77767e"/><rect x="188px" y="438px" width="134px" height="16px" fill="#3e3d43"/><path d="M282.914,375.921h-53.821c-9.635,0-17.445-7.81-17.445-17.445l0,0c0-9.635,7.81-17.445,17.445-17.445  h53.821c9.635,0,17.445,7.81,17.445,17.445l0,0C300.359,368.111,292.549,375.921,282.914,375.921z" fill="#cba400"/><path d="M368.446,7.63c0,0-0.001,15.787-1.672,40.249c-4.184,61.279-18.848,177.026-70.246,235.651  c-8.74,9.969-18.539,18.288-29.532,24.404c-11.958,6.652-19.221,19.415-19.221,33.099h34.273c0-13.684,7.263-26.446,19.221-33.099  c10.993-6.116,20.793-14.435,29.532-24.404c51.397-58.624,66.062-174.372,70.246-235.651c1.67-24.462,1.672-40.249,1.672-40.249  L368.446,7.63L368.446,7.63z" fill="#ddb201"/><path d="M235.724,307.932C134.276,251.49,134.275,7.63,134.275,7.63h-24.988  c0,0,0.001,243.86,101.449,300.302c11.958,6.652,19.221,19.415,19.221,33.099h17.819c0-5.677,1.267-11.188,3.584-16.177  C248.093,317.817,242.72,311.825,235.724,307.932z" fill="#feda44"/><path d="M504.378,97.789c-1.091-92.984-103.33-49.912-103.33-49.912c-0.641,9.377-1.528,20.031-2.753,31.558  c26.899-9.686,84.354-23.947,76.287,34.774c-8.186,59.593-34.177,100.792-68.779,123.01c-19.266,12.371-40.557,14.121-52.855,13.874  c-6.498,11.987-13.84,22.96-22.146,32.434v0.001c0,0,43.479,8.102,86.795-17.964C457.934,241.291,505.451,189.176,504.378,97.789z" fill="#eebf00"/><g><path d="M93.363,73.396c7.544,1.726,14.632,3.984,20.342,6.04c-1.225-11.527-2.112-22.182-2.753-31.558   c0,0-10.055-4.229-23.884-7.175C89.556,51.531,91.914,62.39,93.363,73.396z" fill="#cba400"/><path d="M159.052,251.094c-6.207,0.125-14.708-0.264-24.081-2.266c0.917,2.524,1.842,5.051,2.812,7.565   c4.456,9.533,9.91,18.766,15.461,27.862c16.723,1.362,27.953-0.725,27.953-0.725v-0.001   C172.892,274.054,165.55,263.081,159.052,251.094z" fill="#cba400"/><path d="M418.637,73.396c-7.544,1.726-14.632,3.984-20.342,6.04c1.225-11.527,2.112-22.182,2.753-31.558   c0,0,10.055-4.229,23.884-7.175C422.444,51.531,420.087,62.39,418.637,73.396z" fill="#cba400"/><path d="M352.949,251.094c6.207,0.125,14.708-0.264,24.081-2.266c-0.917,2.524-1.842,5.051-2.812,7.565   c-4.456,9.533-9.91,18.766-15.461,27.862c-16.723,1.362-27.953-0.725-27.953-0.725v-0.001   C339.108,274.054,346.45,263.081,352.949,251.094z" fill="#cba400"/></g><path d="M289.652,429.714h-67.298v-61.396h67.298V429.714z M237.561,414.507h36.885v-30.982h-36.885L237.561,414.507  L237.561,414.507z"/><path d="M282.915,383.524h-53.822c-13.812,0-25.049-11.237-25.049-25.049s11.237-25.049,25.049-25.049h53.822  c13.812,0,25.049,11.237,25.049,25.049S296.727,383.524,282.915,383.524z M229.093,348.634c-5.427,0-9.842,4.415-9.842,9.842  s4.415,9.842,9.842,9.842h53.822c5.427,0,9.842-4.415,9.842-9.842s-4.415-9.842-9.842-9.842H229.093z"/><path d="M330.794,463.015H181.213v-48.508h149.581V463.015z M196.42,447.808h119.167v-18.094H196.42V447.808z"/><path d="M371.394,511.975H140.613v-64.167h230.781V511.975L371.394,511.975z M155.82,496.768h200.368v-33.753H155.82V496.768z"/><path d="M289.652,348.634h-67.298v-7.603c0-11.061-5.869-21.198-15.314-26.455c-24.574-13.672-45.384-38.631-61.852-74.182  c-12.887-27.821-23.214-62.27-30.693-102.385C101.83,70.084,101.683,8.246,101.683,7.629V0.026h308.641l-0.001,7.604  c0,0.655-0.021,16.326-1.69,40.766c-4.366,63.947-19.54,180.18-72.114,240.145c-9.63,10.985-20.246,19.746-31.552,26.036  c-9.446,5.257-15.314,15.393-15.314,26.455L289.652,348.634L289.652,348.634z M236.933,333.427h38.142  c2.255-13.528,10.449-25.435,22.499-32.139c9.778-5.44,19.033-13.102,27.511-22.773c49.627-56.604,64.143-169.122,68.377-231.156  c0.957-14.031,1.362-25.239,1.531-32.127H117.026c1.09,41.271,10.846,237.896,97.407,286.055  C226.483,307.993,234.679,319.899,236.933,333.427z"/><path d="M347.517,292.324c-0.003,0-0.002,0-0.004,0c-10.895-0.001-17.813-1.265-18.102-1.32l-13.13-2.444l8.805-10.043  c7.562-8.625,14.687-19.071,21.18-31.046l2.208-4.072l4.63,0.094c0.632,0.012,1.289,0.019,1.969,0.019  c12.255,0,30.291-2.201,46.623-12.689c34.791-22.34,58.001-64.121,65.354-117.647c1.766-12.851,0.205-22.182-4.637-27.734  c-4.213-4.832-11.434-7.282-21.463-7.282c-13.774,0-29.397,4.584-40.077,8.431l-11.419,4.112l1.282-12.068  c1.1-10.356,2.017-20.878,2.728-31.273l0.318-4.671l4.315-1.818c1.024-0.432,25.357-10.559,51.266-10.559  c39.87,0,62.109,23.932,62.619,67.388c0.502,42.75-9.247,80.804-28.976,113.107c-19.371,31.715-44.129,50.826-61.487,61.271  C393.716,288.81,365.93,292.324,347.517,292.324z M345.624,277.102c0.612,0.01,1.243,0.015,1.889,0.015c0.001,0,0.003,0,0.004,0  c16.487,0,41.347-3.135,66.16-18.066c25.375-15.271,84.268-61.544,83.1-161.171c-0.415-35.233-15.924-52.36-47.414-52.36  c-16.839,0-33.471,5.076-41.077,7.754c-0.378,5.095-0.804,10.21-1.274,15.311c10.334-3.036,22.512-5.634,33.937-5.634  c14.618,0,25.696,4.203,32.925,12.494c7.858,9.013,10.631,22.403,8.242,39.798c-4.095,29.801-12.651,56.141-25.431,78.287  c-12.201,21.142-27.938,37.994-46.772,50.086c-18.396,11.813-38.293,14.792-52.486,15.077  C353.677,265.288,349.735,271.438,345.624,277.102z"/><path d="M164.488,292.324c-18.416,0-46.203-3.513-74.006-20.244c-17.359-10.446-42.117-29.556-61.487-61.272  C9.266,178.504-0.483,140.45,0.018,97.7c0.51-43.455,22.748-67.388,62.619-67.388c25.91,0,50.243,10.127,51.266,10.559l4.314,1.818  l0.319,4.67c0.713,10.424,1.63,20.945,2.728,31.273l1.282,12.069l-11.419-4.112c-10.68-3.846-26.304-8.43-40.077-8.43  c-10.029,0-17.251,2.449-21.463,7.281c-4.843,5.554-6.403,14.884-4.638,27.734c7.353,53.526,30.563,95.308,65.354,117.647  c16.333,10.488,34.369,12.689,46.623,12.689c0.681,0,1.338-0.007,1.97-0.019l4.63-0.094l2.207,4.072  c6.493,11.977,13.619,22.423,21.179,31.045l1.887,2.151v2.861c0,1.979-0.746,6.694-7.658,7.709c-1.116,0.164-2.345,0.316-3.652,0.45  C173.403,292.11,169.028,292.324,164.488,292.324z M62.637,45.519c-31.49,0-46.999,17.127-47.413,52.358  c-1.17,99.626,57.724,145.901,83.099,161.171c24.813,14.932,49.676,18.066,66.164,18.066c0.646,0,1.275-0.005,1.888-0.015  c-4.11-5.664-8.054-11.814-11.801-18.406c-14.193-0.285-34.091-3.264-52.486-15.077c-18.835-12.094-34.571-28.946-46.772-50.086  c-12.781-22.146-21.337-48.485-25.431-78.287c-2.39-17.396,0.383-30.786,8.242-39.798c7.228-8.291,18.306-12.493,32.925-12.493  c11.424,0,23.601,2.597,33.936,5.634c-0.469-5.094-0.895-10.21-1.274-15.312C96.112,50.596,79.478,45.519,62.637,45.519z"/><rect x="109px" y="25px" width="292px" height="15px"/><g><path d="M193.508,272.38c-4.855-5.213-9.514-11.193-13.851-17.776l12.699-8.366   c3.871,5.877,8.002,11.184,12.28,15.777L193.508,272.38z" fill="#ffffff"/><path d="M173.822,245.059c-11.906-20.957-21.639-47.791-28.933-79.756l14.826-3.382   c6.963,30.517,16.157,55.96,27.329,75.626L173.822,245.059z" fill="#ffffff"/></g><rect x="402px" y="318px" width="40px" height="15px" transform="matrix(0.0006799998 1 -1 0.0006799998 748.8335 -97.5124)"/><rect x="415px" y="305px" width="15px" height="40px" transform="matrix(0.0006499999 1 -1 0.0006499999 748.8676 -97.5255)"/><rect x="86px" y="386px" width="15px" height="36px"/><rect x="75px" y="396px" width="36px" height="15px"/><rect x="48px" y="288px" width="14px" height="15px"/><rect x="141px" y="333px" width="14px" height="15px"/><rect x="372px" y="378px" width="14px" height="15px"/></g></defs><g fi:class="KUsePattern"><pattern id="pattern_L1_49" width="350" height="350" patternUnits="userSpaceOnUse"><use xlink:href="#L1_49" x="-350" y="-350"/><use xlink:href="#L1_49" x="0" y="-350"/><use xlink:href="#L1_49" x="350" y="-350"/><use xlink:href="#L1_49" x="-350" y="0"/><use xlink:href="#L1_49" x="0" y="0"/><use xlink:href="#L1_49" x="350" y="0"/><use xlink:href="#L1_49" x="-350" y="350"/><use xlink:href="#L1_49" x="0" y="350"/><use xlink:href="#L1_49" x="350" y="350"/></pattern><rect x="0" y="0" width="100%" height="100%" fill="url(#pattern_L1_49)"/></g><g fi:class="KUsePattern"><pattern id="pattern_L1_50" width="350" height="350" patternUnits="userSpaceOnUse"><use xlink:href="#L1_50" x="-350" y="-350"/><use xlink:href="#L1_50" x="0" y="-350"/><use xlink:href="#L1_50" x="350" y="-350"/><use xlink:href="#L1_50" x="-350" y="0"/><use xlink:href="#L1_50" x="0" y="0"/><use xlink:href="#L1_50" x="350" y="0"/><use xlink:href="#L1_50" x="-350" y="350"/><use xlink:href="#L1_50" x="0" y="350"/><use xlink:href="#L1_50" x="350" y="350"/></pattern><rect x="0" y="0" width="100%" height="100%" fill="url(#pattern_L1_50)"/></g><g fi:class="KUsePattern"><pattern id="pattern_L1_51" width="350" height="350" patternUnits="userSpaceOnUse"><use xlink:href="#L1_51" x="-350" y="-350"/><use xlink:href="#L1_51" x="0" y="-350"/><use xlink:href="#L1_51" x="350" y="-350"/><use xlink:href="#L1_51" x="-350" y="0"/><use xlink:href="#L1_51" x="0" y="0"/><use xlink:href="#L1_51" x="350" y="0"/><use xlink:href="#L1_51" x="-350" y="350"/><use xlink:href="#L1_51" x="0" y="350"/><use xlink:href="#L1_51" x="350" y="350"/></pattern><rect x="0" y="0" width="100%" height="100%" fill="url(#pattern_L1_51)"/></g><g fi:class="KUsePattern"><pattern id="pattern_L1_52" width="350" height="350" patternUnits="userSpaceOnUse"><use xlink:href="#L1_52" x="-350" y="-350"/><use xlink:href="#L1_52" x="0" y="-350"/><use xlink:href="#L1_52" x="350" y="-350"/><use xlink:href="#L1_52" x="-350" y="0"/><use xlink:href="#L1_52" x="0" y="0"/><use xlink:href="#L1_52" x="350" y="0"/><use xlink:href="#L1_52" x="-350" y="350"/><use xlink:href="#L1_52" x="0" y="350"/><use xlink:href="#L1_52" x="350" y="350"/></pattern><rect x="0" y="0" width="100%" height="100%" fill="url(#pattern_L1_52)"/></g><g fi:class="KUsePattern"><pattern id="pattern_L1_53" width="350" height="350" patternUnits="userSpaceOnUse"><use xlink:href="#L1_53" x="-350" y="-350"/><use xlink:href="#L1_53" x="0" y="-350"/><use xlink:href="#L1_53" x="350" y="-350"/><use xlink:href="#L1_53" x="-350" y="0"/><use xlink:href="#L1_53" x="0" y="0"/><use xlink:href="#L1_53" x="350" y="0"/><use xlink:href="#L1_53" x="-350" y="350"/><use xlink:href="#L1_53" x="0" y="350"/><use xlink:href="#L1_53" x="350" y="350"/></pattern><rect x="0" y="0" width="100%" height="100%" fill="url(#pattern_L1_53)"/></g><g fi:class="KUsePattern"><pattern id="pattern_L1_56" width="350" height="350" patternUnits="userSpaceOnUse"><use xlink:href="#L1_56" x="-350" y="-350"/><use xlink:href="#L1_56" x="0" y="-350"/><use xlink:href="#L1_56" x="350" y="-350"/><use xlink:href="#L1_56" x="-350" y="0"/><use xlink:href="#L1_56" x="0" y="0"/><use xlink:href="#L1_56" x="350" y="0"/><use xlink:href="#L1_56" x="-350" y="350"/><use xlink:href="#L1_56" x="0" y="350"/><use xlink:href="#L1_56" x="350" y="350"/></pattern><rect x="0" y="0" width="100%" height="100%" fill="url(#pattern_L1_56)"/></g><g fi:class="KUsePattern"><pattern id="pattern_L1_58" width="350" height="350" patternUnits="userSpaceOnUse"><use xlink:href="#L1_58" x="-350" y="-350"/><use xlink:href="#L1_58" x="0" y="-350"/><use xlink:href="#L1_58" x="350" y="-350"/><use xlink:href="#L1_58" x="-350" y="0"/><use xlink:href="#L1_58" x="0" y="0"/><use xlink:href="#L1_58" x="350" y="0"/><use xlink:href="#L1_58" x="-350" y="350"/><use xlink:href="#L1_58" x="0" y="350"/><use xlink:href="#L1_58" x="350" y="350"/></pattern><rect x="0" y="0" width="100%" height="100%" fill="url(#pattern_L1_58)"/></g><g fi:class="KUsePattern"><pattern id="pattern_L1_62" width="350" height="350" patternUnits="userSpaceOnUse"><use xlink:href="#L1_62" x="-350" y="-350"/><use xlink:href="#L1_62" x="0" y="-350"/><use xlink:href="#L1_62" x="350" y="-350"/><use xlink:href="#L1_62" x="-350" y="0"/><use xlink:href="#L1_62" x="0" y="0"/><use xlink:href="#L1_62" x="350" y="0"/><use xlink:href="#L1_62" x="-350" y="350"/><use xlink:href="#L1_62" x="0" y="350"/><use xlink:href="#L1_62" x="350" y="350"/></pattern><rect x="0" y="0" width="100%" height="100%" fill="url(#pattern_L1_62)"/></g><g fi:class="KUsePattern"><pattern id="pattern_L1_63" width="350" height="350" patternUnits="userSpaceOnUse"><use xlink:href="#L1_63" x="-350" y="-350"/><use xlink:href="#L1_63" x="0" y="-350"/><use xlink:href="#L1_63" x="350" y="-350"/><use xlink:href="#L1_63" x="-350" y="0"/><use xlink:href="#L1_63" x="0" y="0"/><use xlink:href="#L1_63" x="350" y="0"/><use xlink:href="#L1_63" x="-350" y="350"/><use xlink:href="#L1_63" x="0" y="350"/><use xlink:href="#L1_63" x="350" y="350"/></pattern><rect x="0" y="0" width="100%" height="100%" fill="url(#pattern_L1_63)"/></g><g fi:class="KUsePattern"><pattern id="pattern_L1_64" width="350" height="350" patternUnits="userSpaceOnUse"><use xlink:href="#L1_64" x="-350" y="-350"/><use xlink:href="#L1_64" x="0" y="-350"/><use xlink:href="#L1_64" x="350" y="-350"/><use xlink:href="#L1_64" x="-350" y="0"/><use xlink:href="#L1_64" x="0" y="0"/><use xlink:href="#L1_64" x="350" y="0"/><use xlink:href="#L1_64" x="-350" y="350"/><use xlink:href="#L1_64" x="0" y="350"/><use xlink:href="#L1_64" x="350" y="350"/></pattern><rect x="0" y="0" width="100%" height="100%" fill="url(#pattern_L1_64)"/></g></svg>